<?xml version="1.0" encoding="UTF-8" standalone="no"?>
<!-- Creator: CorelDRAW X6 -->

<svg
   xmlns:dc="http://purl.org/dc/elements/1.1/"
   xmlns:cc="http://creativecommons.org/ns#"
   xmlns:rdf="http://www.w3.org/1999/02/22-rdf-syntax-ns#"
   xmlns:svg="http://www.w3.org/2000/svg"
   xmlns="http://www.w3.org/2000/svg"
   xmlns:sodipodi="http://sodipodi.sourceforge.net/DTD/sodipodi-0.dtd"
   xmlns:inkscape="http://www.inkscape.org/namespaces/inkscape"
   xml:space="preserve"
   width="356"
   height="281"
   version="1.1"
   style="clip-rule:evenodd;fill-rule:evenodd;image-rendering:optimizeQuality;shape-rendering:geometricPrecision;text-rendering:geometricPrecision"
   viewBox="0 0 4511.1084 3553.3224"
   id="svg2"
   inkscape:version="0.91 r13725"
   sodipodi:docname="ace-logo.svg"><title
     id="title3432">ACE College of Engineering Logo</title><metadata
     id="metadata335"><rdf:RDF><cc:Work
         rdf:about=""><dc:format>image/svg+xml</dc:format><dc:type
           rdf:resource="http://purl.org/dc/dcmitype/StillImage" /><dc:title>ACE College of Engineering Logo</dc:title><cc:license
           rdf:resource="http://creativecommons.org/licenses/by-nc-nd/3.0/" /><dc:date>1/1/2013</dc:date><dc:creator><cc:Agent><dc:title></dc:title></cc:Agent></dc:creator><dc:rights><cc:Agent><dc:title></dc:title></cc:Agent></dc:rights></cc:Work><cc:License
         rdf:about="http://creativecommons.org/licenses/by-nc-nd/3.0/"><cc:permits
           rdf:resource="http://creativecommons.org/ns#Reproduction" /><cc:permits
           rdf:resource="http://creativecommons.org/ns#Distribution" /><cc:requires
           rdf:resource="http://creativecommons.org/ns#Notice" /><cc:requires
           rdf:resource="http://creativecommons.org/ns#Attribution" /><cc:prohibits
           rdf:resource="http://creativecommons.org/ns#CommercialUse" /></cc:License></rdf:RDF></metadata><sodipodi:namedview
     pagecolor="#ffffff"
     bordercolor="#666666"
     borderopacity="1"
     objecttolerance="10"
     gridtolerance="10"
     guidetolerance="10"
     inkscape:pageopacity="0"
     inkscape:pageshadow="2"
     inkscape:window-width="1920"
     inkscape:window-height="942"
     id="namedview333"
     showgrid="false"
     inkscape:zoom="0.38055555"
     inkscape:cx="-1036.7608"
     inkscape:cy="-42.698553"
     inkscape:window-x="0"
     inkscape:window-y="0"
     inkscape:window-maximized="1"
     inkscape:current-layer="Layer_x0020_1"
     fit-margin-top="3"
     fit-margin-left="3"
     fit-margin-right="3"
     fit-margin-bottom="3"
     units="px" /><defs
     id="defs4"><style
       type="text/css"
       id="style6"><![CDATA[
    .fil5 {fill:#0D5079}
    .fil2 {fill:#FEFEFE}
    .fil4 {fill:#0D5079;fill-rule:nonzero}
    .fil1 {fill:#373435;fill-rule:nonzero}
    .fil6 {fill:#6A8998;fill-rule:nonzero}
    .fil7 {fill:#A4B939;fill-rule:nonzero}
    .fil3 {fill:#FEFEFE;fill-rule:nonzero}
    .fil0 {fill:#094F81;fill-rule:nonzero}
   ]]></style></defs><g
     id="Layer_x0020_1"
     transform="translate(-4371.099,-1971.3388)"><metadata
       id="CorelCorpID_0Corel-Layer" /><g
       id="_393101144"
       transform="matrix(0.52195445,0,0,0.52195445,3411.6748,1791.7147)"
       inkscape:export-xdpi="96"
       inkscape:export-ydpi="96"><path
         class="fil2"
         d="m 8774,2937 1069,0 c 53,-18 98,-51 132,-86 17,-17 32,-34 44,-49 26,-32 40,-57 40,-57 l 0,-14 -1285,0 0,206 z"
         id="path114"
         inkscape:connector-curvature="0"
         style="fill:#fefefe" /><path
         class="fil3"
         d="m 8774,2937 0,48 1077,0 7,-3 c 62,-21 112,-59 151,-97 l 0,0 c 18,-18 34,-36 48,-53 l -37,-29 37,30 c 28,-35 43,-62 44,-63 l 6,-11 0,-74 -1381,0 0,301 48,0 0,-48 48,0 0,-158 1237,0 0,-48 -48,0 0,14 48,0 -41,-24 0,1 c -2,4 -15,24 -35,50 l 0,1 c -10,13 -24,29 -40,45 l 0,0 c -31,31 -71,60 -114,74 l 15,45 0,-48 -1069,0 0,48 48,0 -48,0 z"
         id="path116"
         inkscape:connector-curvature="0"
         style="fill:#fefefe;fill-rule:nonzero" /><path
         class="fil2"
         d="m 5509,2328 c 0,0 -788,-22 -1249,0 -461,22 -455,388 -455,388 l 1,452 355,0 -1,-207 778,0 0,207 c 0,6 84,-1 346,-1 60,0 95,12 53,-112 -175,-563 172,-727 172,-727 z"
         id="path118"
         inkscape:connector-curvature="0"
         style="fill:#fefefe" /><path
         class="fil3"
         d="m 5509,2328 1,-48 c 0,0 -351,-10 -722,-10 -186,0 -376,2 -531,10 -118,6 -211,33 -282,73 -107,60 -163,148 -190,221 -28,73 -28,131 -29,141 l 0,2 48,-2 -48,0 1,499 451,0 -1,-207 682,0 0,159 c 0,8 2,17 6,24 7,13 16,17 21,20 9,4 13,5 17,5 11,1 18,1 31,1 44,0 139,-3 318,-3 9,0 17,0 26,0 15,-1 33,1 57,-12 12,-6 23,-18 28,-31 6,-13 8,-26 8,-38 0,-27 -8,-55 -21,-95 l -45,15 46,-14 c -34,-110 -47,-202 -47,-280 0,-154 51,-250 100,-310 25,-30 49,-51 67,-63 9,-6 16,-11 21,-14 l 5,-3 1,-1 -5,-10 5,10 0,0 -5,-10 5,10 -19,-91 -1,48 -20,-43 c -4,2 -66,31 -127,106 -62,74 -122,195 -122,370 0,88 15,190 51,308 l 0,1 0,1 c 12,35 16,58 16,64 l 0,1 6,1 -5,-2 0,1 6,1 -5,-2 22,7 -17,-16 -6,10 22,7 -17,-16 17,17 -10,-22 -7,5 17,17 -10,-22 6,12 -3,-12 -2,1 6,12 -3,-12 -3,0 -10,0 c -7,0 -16,0 -26,0 -180,0 -278,3 -318,3 -9,0 -15,0 -17,0 l 0,0 -4,32 12,-30 -8,-2 -4,32 12,-30 -16,42 31,-33 c -7,-6 -11,-8 -14,-9 l -16,42 31,-33 -32,34 47,0 c 0,-15 -8,-29 -15,-34 l -32,34 47,0 0,-254 -873,0 1,207 -260,0 -1,-405 0,-1 -31,1 31,0 0,-1 -31,1 31,0 c 0,-3 1,-87 52,-167 25,-40 62,-80 118,-112 56,-32 133,-56 240,-61 152,-7 342,-10 526,-10 185,0 365,3 498,5 134,3 221,5 221,5 l 1,-48 -20,-43 20,43 z"
         id="path120"
         inkscape:connector-curvature="0"
         style="fill:#fefefe;fill-rule:nonzero" /><path
         class="fil2"
         d="m 4931,2732 -772,1 c 0,0 -45,-177 239,-206 283,-28 533,0 533,0 l 0,205 z"
         id="path122"
         inkscape:connector-curvature="0"
         style="fill:#fefefe" /><path
         class="fil3"
         d="m 4931,2732 0,-48 -772,1 0,48 46,-12 -27,7 27,-6 0,-1 -27,7 27,-6 -1,-4 -1,-11 c 0,-18 4,-43 27,-68 23,-25 71,-54 171,-64 92,-9 181,-12 259,-12 78,0 144,3 191,6 23,1 42,3 54,4 12,1 19,2 19,2 l 5,-47 -48,0 0,205 48,0 0,-48 0,48 48,0 0,-248 -42,-5 c -1,0 -114,-13 -274,-13 -80,0 -172,3 -268,13 -115,11 -188,47 -232,94 -44,47 -53,100 -53,133 0,21 3,35 4,38 l 9,36 857,-1 0,-48 -48,0 z"
         id="path124"
         inkscape:connector-curvature="0"
         style="fill:#fefefe;fill-rule:nonzero" /><path
         class="fil2"
         d="m 6101,2530 945,5 c -3,-92 65,-153 142,-190 43,-21 80,-30 80,-30 l -1471,0 c -105,0 -204,51 -276,126 -103,108 -149,258 -125,405 11,66 33,121 68,186 13,25 26,45 36,62 36,58 53,70 53,70 l 1493,0 -1,-211 c -414,-1 -827,-2 -1241,-3 0,0 -3,-33 1,-257 3,-160 295,-163 295,-163 z"
         id="path126"
         inkscape:connector-curvature="0"
         style="fill:#fefefe" /><path
         class="fil3"
         d="m 6101,2530 0,48 994,5 -2,-50 0,-4 c 0,-32 11,-57 31,-81 20,-24 50,-44 84,-60 l 0,0 c 19,-9 37,-16 50,-20 l 15,-5 4,-1 1,0 -11,-94 -1471,0 c -121,0 -231,58 -311,141 -94,98 -144,227 -144,360 0,28 2,57 7,85 l 0,0 c 12,72 37,134 74,201 l 0,0 c 14,26 27,48 38,64 38,60 57,77 65,83 l 13,10 1557,0 -2,-307 -47,0 c -414,-1 -827,-2 -1241,-3 l 0,48 48,-5 -19,2 19,-1 0,-1 -19,2 19,-1 c 0,-1 -1,-18 -1,-75 0,-38 0,-94 2,-177 1,-25 10,-40 30,-57 30,-25 86,-43 133,-51 24,-4 46,-6 61,-8 8,-1 14,-1 18,-1 l 6,0 -1,-48 0,48 0,-48 -1,-48 c -2,0 -78,1 -159,24 -40,12 -83,29 -119,58 -36,28 -64,74 -65,129 -1,82 -2,139 -2,178 0,67 1,81 1,84 l 4,43 43,0 c 414,1 827,2 1241,3 l 0,-48 -48,0 1,163 -1445,0 0,48 29,-38 -19,26 21,-25 -2,-1 -19,26 21,-25 -3,4 3,-4 0,0 -3,4 3,-4 c 0,0 -15,-14 -43,-59 -10,-17 -22,-36 -35,-59 l 0,0 c -34,-62 -53,-111 -63,-171 l 0,0 c -4,-23 -6,-47 -6,-70 0,-109 41,-215 118,-294 65,-68 152,-111 242,-111 l 1471,0 0,-48 -11,-46 c -2,1 -42,10 -90,33 l 0,0 c -42,20 -83,47 -115,84 -32,37 -55,86 -54,143 l 0,7 48,-2 0,-48 -946,-5 0,0 1,48 z"
         id="path128"
         inkscape:connector-curvature="0"
         style="fill:#fefefe;fill-rule:nonzero" /><path
         class="fil2"
         d="m 7696,2530 c 24,-1 41,0 41,0 l 736,0 c -58,-94 -141,-164 -247,-195 -71,-21 -125,-16 -125,-16 0,0 -52,-3 -153,-4 -142,-2 -282,0 -424,4 -52,1 -99,9 -139,20 -227,65 -278,279 -289,487 -6,113 0,225 -1,338 l 1421,0 2,-212 -980,-2 0,-96 974,0 0,-214 -980,0 c 2,-89 105,-107 164,-111 z"
         id="path130"
         inkscape:connector-curvature="0"
         style="fill:#fefefe" /><path
         class="fil3"
         d="m 7696,2530 2,48 c 7,0 14,-1 19,-1 l 12,0 3,0 1,0 2,0 824,0 -45,-73 c -63,-102 -155,-181 -274,-216 l 0,0 c -54,-16 -99,-19 -123,-19 -12,0 -19,1 -20,1 l 5,48 3,-48 c -1,0 -53,-3 -155,-4 -38,-1 -76,-1 -114,-1 -104,0 -208,2 -312,5 -56,2 -106,9 -151,22 -126,36 -209,118 -255,215 -47,97 -63,208 -69,315 -2,39 -3,79 -3,117 0,70 2,139 2,207 l 0,16 0,48 1516,0 3,-307 -980,-2 0,-1 974,0 0,-309 -1028,0 0,48 48,1 c 1,-13 4,-20 8,-27 7,-10 24,-20 45,-27 21,-7 46,-10 66,-11 l -3,-48 -3,-48 c -33,2 -78,7 -122,28 -22,10 -43,25 -60,47 -17,22 -28,51 -28,82 l -1,49 981,0 0,118 -974,0 0,191 979,1 -1,117 -1373,0 0,48 48,0 0,-16 c 0,-70 -2,-139 -2,-207 0,-38 1,-75 3,-112 5,-101 21,-201 59,-279 39,-78 95,-135 196,-165 36,-10 78,-17 127,-18 103,-3 206,-5 309,-5 38,0 75,0 113,1 50,1 88,2 114,2 25,1 38,2 38,2 l 4,0 4,0 0,-2 0,2 0,0 0,-2 0,2 11,0 c 17,0 53,2 96,15 l 0,0 c 94,28 167,89 220,174 l 41,-25 0,-48 -736,0 0,48 4,-48 c -1,0 -10,-1 -23,-1 -7,0 -15,0 -24,1 l 2,48 z"
         id="path132"
         inkscape:connector-curvature="0"
         style="fill:#fefefe;fill-rule:nonzero" /><path
         class="fil2"
         d="m 2945,3322 c 19,18 41,38 65,58 93,77 223,159 358,162 125,3 1456,3 2786,2 1395,-1 2787,-2 2787,-2 0,0 213,-49 372,-165 46,-34 90,-75 122,-124 l -6562,-5 c 0,0 26,32 71,74 z"
         id="path134"
         inkscape:connector-curvature="0"
         style="fill:#fefefe" /><path
         class="fil3"
         d="m 2945,3322 -33,35 c 19,18 42,39 67,60 97,79 234,168 388,173 91,2 798,3 1681,3 350,0 728,0 1106,0 1395,-1 2787,-2 2787,-2 l 5,0 5,-1 c 3,-1 219,-50 390,-173 50,-36 98,-81 134,-136 l 48,-74 -6751,-5 65,78 c 1,1 28,34 74,78 l 1,1 0,0 33,-35 33,-34 c -21,-21 -38,-38 -50,-51 l -13,-15 -4,-5 -37,31 0,48 6562,5 0,-48 -40,-26 c -27,42 -67,80 -110,111 -74,54 -164,94 -234,120 -35,13 -66,22 -87,29 -11,3 -19,5 -25,7 l -8,2 11,46 0,-48 c 0,0 -87,0 -239,0 -457,1 -1502,2 -2548,2 -378,0 -756,0 -1106,0 -883,0 -1592,-1 -1679,-3 -116,-2 -240,-77 -329,-151 -23,-19 -44,-38 -63,-56 l -33,35 33,-34 -33,34 z"
         id="path136"
         inkscape:connector-curvature="0"
         style="fill:#fefefe;fill-rule:nonzero" /><path
         class="fil2"
         d="m 10368,2316 c 0,0 -1835,0 -2018,0 126,58 222,152 255,290 6,27 11,66 14,111 12,173 3,436 3,436 114,-156 123,-497 123,-497 l 1393,0 c 10,-3 19,-7 28,-11 36,-14 65,-32 89,-51 131,-107 114,-274 113,-278 z"
         id="path138"
         inkscape:connector-curvature="0"
         style="fill:#fefefe" /><path
         class="fil3"
         d="m 10368,2316 0,-48 c 0,0 -1835,0 -2018,0 l -20,91 c 118,55 199,136 228,258 5,22 10,59 12,102 l 0,0 c 4,66 6,146 6,220 0,57 -1,110 -2,149 -1,39 -2,63 -2,63 l -5,155 92,-125 c 65,-91 95,-219 113,-327 17,-108 19,-195 19,-196 l -48,-1 0,48 1401,0 7,-2 c 11,-4 22,-8 33,-12 l -19,-44 17,44 c 41,-16 74,-37 102,-58 l 1,0 c 59,-48 93,-108 111,-161 18,-53 21,-101 21,-130 0,-8 0,-15 -1,-20 l -1,-11 -6,-41 -41,0 0,48 -47,7 29,-4 -29,3 0,1 29,-4 -29,3 c 0,1 1,8 1,18 0,22 -3,59 -16,100 -14,40 -37,82 -80,117 l 30,37 -30,-37 c -21,17 -46,32 -77,44 l -1,0 -1,0 c -7,3 -15,6 -24,9 l 14,46 0,-48 -1440,0 -1,46 c 0,0 0,5 -1,14 -2,32 -7,117 -24,209 -17,92 -47,190 -89,247 l 38,28 48,2 c 0,0 3,-98 3,-215 0,-75 -1,-157 -6,-226 l 0,0 c -3,-46 -7,-87 -15,-119 -37,-155 -146,-260 -281,-322 l -20,43 0,48 c 183,0 2018,0 2018,0 l 0,-48 -47,7 47,-7 z"
         id="path140"
         inkscape:connector-curvature="0"
         style="fill:#fefefe;fill-rule:nonzero" /><path
         class="fil2"
         d="m 3698,3153 c 0,0 -9,-263 3,-436 3,-45 8,-84 14,-111 33,-138 124,-231 251,-290 -182,0 -2014,0 -2014,0 0,5 -18,172 113,278 24,19 53,37 89,51 9,4 19,7 29,10 l 1393,0 c 0,0 8,341 122,497 z"
         id="path142"
         inkscape:connector-curvature="0"
         style="fill:#fefefe" /><path
         class="fil3"
         d="m 3698,3153 48,-2 c 0,0 -1,-24 -2,-62 -1,-38 -2,-91 -2,-147 0,-74 1,-155 6,-221 l 0,0 c 3,-44 8,-82 13,-104 l -47,-11 46,11 c 30,-123 107,-202 225,-258 l -20,-91 c -91,0 -595,0 -1075,0 -481,0 -939,0 -939,0 l -44,0 -4,44 c 0,1 -1,12 -1,28 0,29 3,77 21,130 18,53 51,113 111,161 l 0,0 c 27,22 61,43 101,58 l 17,-44 -19,44 c 11,5 22,9 34,12 l 7,2 1400,0 0,-48 -48,1 c 0,1 2,88 19,196 17,108 47,237 112,327 l 91,125 -5,-155 -48,2 38,-28 c -48,-65 -80,-185 -95,-286 -8,-51 -12,-97 -15,-130 -1,-17 -2,-30 -2,-39 0,-9 -1,-14 -1,-14 l -1,-47 -1440,0 0,48 14,-46 c -8,-3 -16,-5 -24,-9 l -1,0 -1,0 c -31,-12 -56,-28 -76,-44 l 0,0 c -43,-35 -67,-77 -80,-118 -14,-40 -16,-78 -16,-100 0,-13 1,-18 1,-20 l -48,-4 0,48 c 0,0 114,0 289,0 524,0 1588,0 1725,0 l 0,-48 -20,-43 c -136,62 -241,168 -277,322 l 0,1 c -7,32 -12,72 -15,118 l 0,0 c -5,70 -6,153 -6,228 0,115 3,212 3,213 l 48,-2 38,-28 -38,28 z"
         id="path144"
         inkscape:connector-curvature="0"
         style="fill:#fefefe;fill-rule:nonzero" /><path
         class="fil2"
         d="m 3546,2731 -1285,0 0,14 c 0,0 14,25 39,57 13,15 27,32 44,49 35,34 80,68 133,86 l 1068,0 0,-206 z"
         id="path146"
         inkscape:connector-curvature="0"
         style="fill:#fefefe" /><path
         class="fil3"
         d="m 3546,2731 0,-48 -1333,0 0,74 6,11 c 1,2 16,29 44,64 l 1,1 0,0 c 13,15 28,33 48,52 l 0,0 c 38,38 89,76 151,97 l 7,2 1124,0 0,-301 -48,0 0,48 -48,0 0,158 -1021,0 0,48 15,-45 c -44,-15 -83,-43 -115,-75 l 0,0 c -15,-15 -29,-31 -41,-46 l -36,31 37,-30 c -12,-15 -21,-28 -26,-37 l -6,-10 -1,-3 0,0 -42,23 48,0 0,-14 -48,0 0,48 1285,0 0,-48 -48,0 48,0 z"
         id="path148"
         inkscape:connector-curvature="0"
         style="fill:#fefefe;fill-rule:nonzero" /><path
         class="fil2"
         d="m 3589,3092 c -11,-30 -23,-62 -30,-94 l -982,9 c 0,0 12,18 34,44 10,12 22,25 37,37 29,27 67,56 112,76 l 858,0 c 0,0 -14,-33 -29,-72 z"
         id="path150"
         inkscape:connector-curvature="0"
         style="fill:#fefefe" /><path
         class="fil3"
         d="m 3589,3092 45,-17 c -11,-30 -22,-60 -28,-88 l -9,-37 -1107,10 47,73 c 1,1 14,22 38,50 l 36,-31 -37,31 c 11,13 25,28 42,43 l 31,-36 -33,35 c 32,30 73,61 125,85 l 9,4 941,0 -29,-67 c 0,0 -3,-8 -8,-20 -5,-13 -12,-30 -19,-49 l 0,0 -45,17 -45,16 c 15,41 29,75 30,75 l 44,-19 0,-48 -858,0 0,48 20,-43 c -39,-18 -73,-43 -99,-68 l -1,-1 -1,-1 c -12,-11 -22,-21 -31,-32 l -1,-1 c -10,-12 -18,-22 -23,-29 l -6,-8 -1,-2 0,0 -40,26 0,48 982,-9 0,-48 -47,11 c 8,36 20,69 32,100 l 0,0 45,-16 z"
         id="path152"
         inkscape:connector-curvature="0"
         style="fill:#fefefe;fill-rule:nonzero" /><path
         class="fil2"
         d="m 8760,2998 c -8,32 -19,64 -30,94 -14,40 -28,72 -28,72 l 858,0 c 45,-21 83,-49 112,-76 14,-13 26,-26 36,-37 23,-26 35,-44 35,-44 l 0,0 -982,-9 z"
         id="path154"
         inkscape:connector-curvature="0"
         style="fill:#fefefe" /><path
         class="fil3"
         d="m 8760,2998 -46,-11 c -7,28 -17,59 -28,89 l 0,0 c -7,19 -14,37 -19,49 -5,13 -8,20 -8,20 l -28,66 940,0 9,-4 c 51,-23 93,-55 125,-85 l -32,-35 32,36 c 17,-15 30,-29 41,-43 l -37,-31 36,32 c 25,-28 38,-48 39,-50 l 48,-74 -88,0 0,0 -1021,-9 -9,37 46,11 0,48 982,9 1,0 0,-48 -40,-26 0,0 c -2,2 -12,18 -31,39 l 0,0 0,1 c -9,11 -19,22 -31,32 l -1,1 c -26,25 -60,50 -100,68 l 20,43 0,-48 -858,0 0,48 44,19 c 0,0 14,-34 29,-75 l 0,0 c 11,-30 23,-64 32,-100 l -46,-11 0,48 0,-48 z"
         id="path156"
         inkscape:connector-curvature="0"
         style="fill:#fefefe;fill-rule:nonzero" /><path
         class="fil2"
         d="m 5101,2258 291,0 0,1 103,0 0,-1 70,0 0,1 103,0 0,-1 81,0 0,1 103,0 0,-1 88,0 0,1 103,0 0,-1 76,0 0,1 103,0 0,-1 69,0 0,1 103,0 0,-1 87,0 0,1 103,0 0,-1 80,0 0,1 103,0 0,-1 70,0 0,1 103,0 0,-1 287,0 -1,-3 1182,1 c -19,-77 -41,-154 -66,-228 -186,57 -373,-36 -461,-201 -89,-167 -63,-381 72,-518 -91,-115 -192,-223 -302,-320 -267,291 -726,57 -688,-341 3,-23 7,-46 13,-68 -133,-51 -272,-89 -414,-113 -109,406 -654,413 -771,9 -141,27 -279,68 -412,124 75,391 -359,671 -651,412 -111,100 -211,209 -301,328 101,137 114,324 36,473 -77,147 -233,238 -401,215 -26,75 -48,151 -66,228 l 1110,-1 -1,3 z"
         id="path158"
         inkscape:connector-curvature="0"
         style="fill:#fefefe" /><path
         class="fil3"
         d="m 5101,2258 0,48 291,0 0,-48 -48,0 0,48 198,0 0,-1 23,0 0,-48 -48,0 0,48 198,0 0,-1 33,0 0,-48 -48,0 0,48 198,0 0,-1 40,0 0,-48 -48,0 0,48 198,0 0,-1 29,0 0,-48 -48,0 0,48 198,0 0,-1 21,0 0,-48 -48,0 0,49 198,0 0,-1 40,0 0,-48 -48,0 0,49 198,0 0,-1 33,0 0,-48 -48,0 0,49 198,0 0,-1 22,0 0,-48 -48,0 0,49 198,0 0,-1 316,0 -1,-3 1165,1 -14,-59 c -19,-78 -42,-156 -68,-232 l -15,-44 -44,13 c -33,10 -65,15 -97,15 -127,0 -245,-75 -308,-192 -31,-58 -47,-123 -47,-188 0,-101 38,-201 111,-274 l 30,-30 -26,-33 c -92,-118 -196,-228 -308,-326 l -35,-31 -32,34 c -75,81 -162,114 -248,114 -91,0 -181,-38 -248,-105 -67,-67 -111,-160 -111,-272 0,-14 1,-27 2,-41 l -48,-5 47,6 c 3,-21 6,-42 11,-61 l 12,-42 -40,-15 C 6851,479 6709,440 6564,415 l -43,-7 -11,42 c -25,93 -74,160 -134,205 -61,45 -134,68 -207,68 -72,0 -143,-22 -203,-65 -60,-44 -108,-109 -135,-199 l -12,-42 -43,8 c -144,28 -285,70 -421,126 l -36,15 7,38 c 5,27 8,54 8,79 0,108 -44,202 -110,269 -67,67 -157,107 -248,107 -75,0 -152,-26 -222,-88 l -32,-28 -32,28 c -113,102 -215,214 -307,335 l -22,28 21,29 c 51,69 77,153 77,237 0,64 -15,128 -45,185 -62,117 -179,193 -307,193 -15,0 -30,-1 -45,-3 l -39,-5 -13,37 c -26,76 -49,154 -68,233 l -14,59 1170,-1 0,-48 -43,-20 -1,3 -32,68 75,0 0,-48 43,20 33,-71 -1185,1 0,48 46,11 c 18,-76 40,-150 65,-224 l -45,-15 -6,47 c 19,3 39,4 58,4 167,0 315,-98 392,-244 38,-72 56,-151 56,-230 0,-104 -32,-208 -96,-294 l -38,28 38,29 c 88,-116 186,-224 294,-321 l -32,-35 -32,36 c 87,77 188,112 285,112 238,0 453,-203 454,-472 0,-32 -3,-64 -9,-97 l -47,9 18,44 c 130,-54 265,-94 402,-121 l -9,-47 -46,13 c 32,109 93,194 170,249 77,56 168,84 259,84 93,0 186,-29 264,-87 78,-58 140,-145 170,-257 l -46,-12 -8,47 c 138,23 274,61 405,111 l 17,-45 -46,-13 c -7,25 -11,51 -14,75 l 0,1 0,0 c -2,17 -3,34 -3,51 0,138 55,257 140,340 84,83 198,132 315,132 112,0 227,-46 318,-145 l -35,-32 -31,36 c 108,95 207,200 296,314 l 38,-29 -34,-34 c -92,93 -138,217 -138,342 0,80 19,160 58,233 78,146 227,242 392,243 41,0 83,-6 125,-19 l -14,-46 -45,15 c 25,73 47,148 65,224 l 46,-11 0,-48 -1258,-1 1,3 -258,0 0,1 -55,0 0,48 48,0 0,-49 -165,0 0,1 -55,0 0,48 48,0 0,-49 -176,0 0,1 -55,0 0,48 48,0 0,-49 -183,0 0,1 -55,0 0,48 48,0 0,-49 -164,1 0,1 -55,0 0,48 48,0 0,-48 -172,0 0,1 -55,0 0,48 48,0 0,-48 -183,0 0,1 -55,0 0,48 48,0 0,-48 -176,0 0,1 -55,0 0,48 48,0 0,-48 -166,0 0,1 -55,0 0,48 48,0 0,-48 -339,0 0,48 43,20 -43,-20 z"
         id="path160"
         inkscape:connector-curvature="0"
         style="fill:#fefefe;fill-rule:nonzero" /><path
         class="fil2"
         d="m 7225,3604 -287,0 0,-1 -103,0 0,1 -70,0 0,-1 -103,0 0,1 -80,0 0,-1 -103,0 0,1 -88,0 0,-1 -103,0 0,1 -69,0 0,-1 -103,0 0,1 -76,0 0,0 -103,0 0,0 -88,0 0,0 -103,0 0,0 -81,0 0,0 -103,0 0,0 -70,0 0,0 -103,0 0,0 -291,0 1,3 -1110,-1 c 18,78 41,154 66,228 168,-22 323,69 401,215 78,149 66,337 -36,473 89,119 190,229 301,329 292,-259 726,21 651,412 133,54 271,96 412,123 117,-403 662,-396 771,9 142,-24 281,-62 414,-113 -6,-23 -10,-45 -13,-68 -38,-398 422,-632 688,-341 111,-97 212,-205 302,-320 -136,-137 -161,-351 -72,-518 88,-165 275,-257 461,-200 26,-75 48,-151 66,-228 l -1182,1 1,-3 z"
         id="path162"
         inkscape:connector-curvature="0"
         style="fill:#fefefe" /><path
         class="fil3"
         d="m 7225,3604 0,-48 -287,0 0,48 48,0 0,-49 -198,0 0,1 -22,0 0,48 48,0 0,-49 -198,0 0,1 -32,0 0,48 48,0 0,-48 -198,0 0,1 -40,0 0,48 48,0 0,-48 -198,0 0,1 -21,0 0,48 48,0 0,-49 -198,0 0,0 -29,0 0,48 48,0 0,-48 -198,0 0,0 -40,0 0,48 48,0 0,-48 -198,0 0,0 -33,0 0,48 48,0 0,-48 -198,0 0,0 -22,0 0,48 48,0 0,-48 -198,0 0,0 -321,0 1,3 -1093,-1 14,59 c 19,79 41,157 68,233 l 13,37 39,-5 c 15,-2 29,-3 44,-3 129,0 247,76 309,193 30,57 45,121 45,186 0,84 -26,168 -77,237 l -21,29 21,29 c 91,121 194,233 307,335 l 32,29 32,-28 c 71,-62 147,-88 222,-88 91,0 181,40 248,107 67,67 110,161 110,270 0,26 -2,52 -8,79 l -7,38 36,15 c 136,56 277,98 421,126 l 43,8 12,-42 c 26,-90 75,-155 135,-199 60,-44 131,-65 203,-65 73,0 146,23 207,68 60,45 109,112 134,205 l 11,42 43,-7 c 145,-24 287,-63 423,-115 l 40,-15 -11,-42 c -5,-20 -9,-40 -11,-62 l -47,6 48,-4 c -1,-14 -2,-28 -2,-42 0,-112 44,-206 111,-272 67,-67 158,-105 248,-105 87,0 173,34 248,114 l 32,34 35,-31 c 113,-99 216,-209 308,-326 l 26,-33 -30,-30 c -73,-74 -111,-173 -111,-274 0,-65 15,-129 47,-188 63,-117 180,-192 307,-192 32,0 65,5 98,15 l 44,14 15,-44 c 26,-76 49,-154 68,-232 l 14,-59 -1242,1 0,48 43,22 1,-3 35,-69 -78,0 0,48 -43,-22 -37,72 1259,-1 0,-48 -46,-11 c -18,75 -40,150 -65,224 l 45,15 14,-46 c -42,-13 -85,-19 -126,-19 -165,0 -313,96 -391,242 -39,72 -58,153 -58,232 0,124 46,248 138,341 l 34,-34 -38,-30 c -89,113 -188,219 -296,314 l 31,36 35,-32 c -91,-100 -206,-146 -318,-145 -118,0 -231,49 -315,132 -84,83 -140,202 -140,340 0,17 1,33 2,51 l 0,0 0,1 c 3,25 7,50 14,75 l 46,-12 -17,-45 c -130,50 -267,87 -405,110 l 8,47 46,-12 c -30,-112 -92,-199 -170,-257 -78,-58 -171,-87 -264,-87 -91,0 -182,28 -259,84 -77,56 -139,140 -170,249 l 46,13 9,-47 c -138,-27 -272,-67 -403,-121 l -18,44 47,9 c 6,-33 9,-66 9,-97 -1,-269 -216,-472 -454,-472 -98,0 -199,35 -285,112 l 32,36 32,-35 c -108,-98 -207,-205 -294,-322 l -38,29 38,28 c 64,-86 96,-190 96,-294 0,-79 -19,-158 -56,-230 -77,-146 -226,-244 -393,-244 -19,0 -37,1 -56,4 l 6,47 45,-16 c -25,-73 -47,-147 -65,-223 l -46,11 0,48 1188,1 -2,-3 261,0 0,0 55,0 0,-48 -48,0 0,48 166,0 0,0 55,0 0,-48 -48,0 0,48 176,0 0,0 55,0 0,-48 -48,0 0,48 183,0 0,0 55,0 0,-48 -48,0 0,48 172,1 0,-1 55,0 0,-48 -48,0 0,49 164,0 0,-1 55,0 0,-48 -48,0 0,48 183,0 0,-1 55,0 0,-48 -48,0 0,48 176,1 0,-1 55,0 0,-48 -48,0 0,49 165,0 0,-1 55,0 0,-48 -48,0 0,49 335,0 0,-48 -43,-22 43,22 z"
         id="path164"
         inkscape:connector-curvature="0"
         style="fill:#fefefe;fill-rule:nonzero" /><polygon
         class="fil3"
         points="3052,3306 9049,3306 9049,2284 3052,2284 "
         id="polygon166"
         style="fill:#fefefe;fill-rule:nonzero" /><polygon
         class="fil4"
         points="4277,6325 4374,6325 4374,5730 4277,5730 "
         id="polygon168"
         style="fill:#0d5079;fill-rule:nonzero" /><path
         class="fil4"
         d="m 4555,6325 0,-619 378,364 c 11,10 21,21 32,33 11,12 22,25 33,39 l 0,-413 90,0 0,619 -386,-371 c -10,-10 -20,-21 -30,-32 -9,-11 -19,-23 -27,-35 l 0,414 -89,0 z"
         id="path170"
         inkscape:connector-curvature="0"
         style="fill:#0d5079;fill-rule:nonzero" /><path
         class="fil4"
         d="m 5232,6206 77,-36 c 7,27 21,47 40,61 19,14 44,21 75,21 29,0 52,-8 69,-24 17,-16 26,-37 26,-64 0,-35 -29,-66 -87,-93 -8,-4 -14,-7 -19,-9 -66,-32 -110,-61 -131,-87 -22,-26 -33,-58 -33,-95 0,-49 17,-88 49,-118 33,-30 76,-45 130,-45 44,0 81,9 111,26 29,17 50,41 61,73 l -76,39 c -12,-19 -25,-32 -39,-41 -14,-8 -31,-13 -49,-13 -26,0 -47,7 -62,20 -15,13 -23,32 -23,55 0,36 34,69 101,100 l 12,6 c 59,27 99,53 121,79 22,26 33,58 33,97 0,56 -18,101 -53,134 -36,33 -84,50 -144,50 -51,0 -92,-12 -125,-35 -32,-23 -54,-56 -64,-100 z"
         id="path172"
         inkscape:connector-curvature="0"
         style="fill:#0d5079;fill-rule:nonzero" /><path
         class="fil4"
         d="m 5862,5979 25,0 c 54,0 89,-6 107,-17 18,-12 27,-32 27,-62 0,-32 -10,-54 -29,-67 -19,-13 -54,-20 -106,-20 l -25,0 0,166 z m -6,80 0,267 -91,0 0,-596 147,0 c 43,0 75,3 96,7 20,5 38,12 53,23 19,14 33,32 44,56 11,23 16,49 16,77 0,28 -6,54 -16,78 -10,24 -25,43 -44,56 -15,11 -33,19 -53,23 -21,5 -53,7 -96,7 l -56,0 z"
         id="path174"
         inkscape:connector-curvature="0"
         style="fill:#0d5079;fill-rule:nonzero" /><polygon
         class="fil4"
         points="6252,6325 6348,6325 6348,5730 6252,5730 "
         id="polygon176"
         style="fill:#0d5079;fill-rule:nonzero" /><path
         class="fil4"
         d="m 6626,5984 18,0 c 51,0 85,-6 102,-18 17,-12 25,-33 25,-64 0,-33 -9,-56 -27,-69 -18,-14 -51,-20 -100,-20 l -18,0 0,171 z m -6,75 0,266 -90,0 0,-596 135,0 c 40,0 70,3 92,8 22,5 41,14 56,26 19,14 33,33 43,56 10,23 15,47 15,75 0,48 -12,85 -35,112 -23,27 -57,43 -102,48 l 205,271 -109,0 -198,-266 -11,0 z"
         id="path178"
         inkscape:connector-curvature="0"
         style="fill:#0d5079;fill-rule:nonzero" /><polygon
         class="fil4"
         points="7134,6046 7134,6239 7369,6239 7369,6325 7037,6325 7037,5730 7369,5730 7369,5812 7134,5812 7134,5961 7369,5961 7369,6046 "
         id="polygon180"
         style="fill:#0d5079;fill-rule:nonzero" /><path
         class="fil4"
         d="m 7619,6238 81,0 c 45,0 79,-3 101,-9 23,-6 42,-16 59,-30 23,-19 39,-43 50,-72 11,-29 17,-62 17,-100 0,-38 -6,-71 -17,-100 -11,-29 -28,-52 -50,-72 -17,-14 -37,-24 -61,-30 -23,-6 -60,-9 -110,-9 l -70,0 0,422 z m -96,87 0,-596 130,0 c 85,0 145,4 179,13 35,8 65,23 91,43 34,26 61,60 78,101 18,41 27,88 27,141 0,53 -9,100 -27,141 -18,41 -44,75 -78,101 -26,20 -55,34 -89,43 -33,8 -85,13 -155,13 l -157,0 z"
         id="path182"
         inkscape:connector-curvature="0"
         style="fill:#0d5079;fill-rule:nonzero" /><path
         class="fil4"
         d="m 4321,7030 53,0 4,0 5,0 c 28,-1 54,-7 77,-18 24,-11 35,-34 35,-69 0,-31 -11,-53 -32,-64 -21,-11 -44,-18 -69,-20 l -14,0 -14,0 -46,0 0,171 z m 0,-216 20,0 c 30,1 56,-3 78,-12 22,-8 33,-31 33,-68 0,-36 -10,-59 -31,-67 -20,-8 -47,-13 -79,-13 l -21,0 0,159 z m -53,-208 78,0 c 43,0 80,10 112,28 31,19 47,52 47,101 0,19 -4,37 -12,52 -8,16 -19,29 -35,40 28,7 51,21 66,44 16,23 24,48 24,77 0,47 -16,81 -50,101 -33,20 -73,30 -120,30 l -110,0 0,-474 z"
         id="path184"
         inkscape:connector-curvature="0"
         style="fill:#0d5079;fill-rule:nonzero" /><polygon
         class="fil4"
         points="4795,6817 4916,6606 4977,6606 4822,6876 4822,7079 4769,7079 4769,6876 4614,6606 4675,6606 "
         id="polygon186"
         style="fill:#0d5079;fill-rule:nonzero" /><path
         class="fil4"
         d="m 5338,6823 35,0 c 29,0 55,-5 76,-17 21,-12 32,-35 32,-68 0,-38 -13,-62 -38,-70 -25,-9 -53,-13 -84,-13 l -22,0 0,169 z m 0,256 -52,0 0,-474 78,0 9,1 9,0 c 18,1 35,2 52,6 17,3 33,9 48,19 18,12 31,28 40,47 9,20 14,40 14,60 l 0,5 c -1,18 -5,36 -13,53 -8,17 -19,32 -33,43 -14,12 -29,20 -46,24 -17,4 -34,6 -51,7 l -54,0 0,207 z"
         id="path188"
         inkscape:connector-curvature="0"
         style="fill:#0d5079;fill-rule:nonzero" /><path
         class="fil4"
         d="m 5685,6888 0,21 1,16 c 0,12 2,24 5,36 3,12 8,23 15,33 8,11 18,20 31,28 13,7 26,12 40,15 l 12,2 12,1 9,-1 8,-1 c 15,-2 28,-7 42,-14 13,-7 25,-16 34,-27 9,-11 15,-23 18,-36 3,-13 5,-27 5,-41 l 0,-315 53,0 0,297 c 0,26 -2,49 -7,71 -4,21 -16,41 -35,61 -16,18 -36,31 -58,40 -22,9 -46,13 -69,13 l -5,0 -6,-1 c -21,-1 -40,-6 -60,-14 -19,-8 -36,-19 -51,-34 -21,-20 -33,-40 -39,-63 -5,-22 -8,-47 -8,-74 l 0,-297 53,0 0,282 z"
         id="path190"
         inkscape:connector-curvature="0"
         style="fill:#0d5079;fill-rule:nonzero" /><path
         class="fil4"
         d="m 6147,6825 17,0 1,0 1,0 c 29,0 56,-5 81,-15 25,-10 37,-33 37,-70 0,-39 -12,-63 -36,-72 -24,-9 -52,-13 -84,-13 l -16,0 0,170 z m 0,254 -53,0 0,-474 68,0 c 45,0 85,9 120,26 35,17 53,52 53,105 0,37 -11,67 -32,90 -21,24 -50,37 -87,41 l 151,211 -65,0 -143,-208 -14,0 0,208 z"
         id="path192"
         inkscape:connector-curvature="0"
         style="fill:#0d5079;fill-rule:nonzero" /><path
         class="fil4"
         d="m 6519,6823 35,0 c 30,0 55,-5 76,-17 21,-12 32,-35 32,-68 0,-38 -13,-62 -38,-70 -25,-9 -53,-13 -84,-13 l -21,0 0,169 z m 0,256 -53,0 0,-474 78,0 9,1 9,0 c 17,1 35,2 52,6 17,3 33,9 48,19 18,12 31,28 40,47 9,20 13,40 13,60 l 0,5 c -1,18 -5,36 -13,53 -7,17 -19,32 -33,43 -14,12 -29,20 -46,24 -17,4 -34,6 -51,7 l -53,0 0,207 z"
         id="path194"
         inkscape:connector-curvature="0"
         style="fill:#0d5079;fill-rule:nonzero" /><path
         class="fil4"
         d="m 6899,6705 c -38,39 -56,84 -56,138 0,53 19,99 57,138 38,39 84,58 137,58 54,0 99,-20 137,-58 38,-39 57,-85 57,-138 0,-54 -19,-100 -56,-139 -37,-39 -83,-58 -138,-58 -54,1 -100,20 -138,58 z m 138,-108 c 67,1 125,25 174,73 49,48 73,106 73,174 0,68 -25,126 -73,173 -48,47 -107,71 -174,71 -67,0 -125,-24 -174,-71 -49,-47 -73,-105 -73,-173 0,-68 24,-126 73,-174 48,-48 106,-72 174,-72 l 0,-1 z"
         id="path196"
         inkscape:connector-curvature="0"
         style="fill:#0d5079;fill-rule:nonzero" /><path
         class="fil4"
         d="m 7644,6671 -42,27 c -9,-16 -20,-28 -32,-38 -13,-9 -29,-13 -49,-13 -21,0 -39,7 -55,20 -16,13 -24,31 -24,53 0,16 6,30 18,40 11,10 24,19 37,25 l 10,5 9,4 32,13 c 31,14 58,30 80,49 23,19 33,47 33,85 0,42 -14,76 -43,104 -29,28 -64,42 -106,42 -38,0 -70,-11 -97,-33 -26,-22 -43,-52 -51,-89 l 51,-15 c 3,25 14,45 31,63 17,17 39,26 64,26 26,0 48,-9 68,-26 20,-18 30,-40 30,-66 0,-27 -9,-47 -26,-59 -17,-13 -36,-24 -57,-33 l -2,-1 -2,-1 -29,-13 c -27,-12 -52,-27 -72,-44 -21,-17 -31,-43 -31,-77 0,-37 13,-66 40,-88 27,-22 58,-32 93,-32 26,0 50,6 72,19 21,13 38,31 51,54 l 0,0 z"
         id="path198"
         inkscape:connector-curvature="0"
         style="fill:#0d5079;fill-rule:nonzero" /><polygon
         class="fil4"
         points="7822,7030 8015,7030 8015,7079 7769,7079 7769,6606 8015,6606 8015,6655 7822,6655 7822,6795 8009,6795 8009,6844 7822,6844 "
         id="polygon200"
         style="fill:#0d5079;fill-rule:nonzero" /><path
         class="fil5"
         d="m 4160,2733 c 0,0 -45,-177 239,-206 283,-28 533,0 533,0 l 0,205 -772,1 z m 1,435 -355,0 -1,-451 c 0,0 -6,-367 455,-388 461,-22 1249,0 1249,0 0,0 -347,164 -172,727 42,124 7,112 -53,112 -262,0 -346,7 -346,1 l 0,-207 -778,0 1,207 z"
         id="path202"
         inkscape:connector-curvature="0"
         style="fill:#0d5079" /><path
         class="fil5"
         d="m 5500,3095 c -10,-17 -23,-37 -36,-62 -35,-64 -57,-120 -68,-186 -24,-147 21,-297 125,-405 72,-75 171,-126 276,-126 l 1471,0 c 0,0 -37,9 -80,30 -77,37 -145,98 -142,190 l -945,-5 c 0,0 -293,4 -295,163 -4,223 -1,257 -1,257 414,1 827,2 1241,3 l 1,211 -1493,0 c 0,0 -17,-13 -53,-70 z"
         id="path204"
         inkscape:connector-curvature="0"
         style="fill:#0d5079" /><path
         class="fil5"
         d="m 7094,3164 c 1,-113 -6,-225 1,-338 11,-208 63,-422 290,-487 40,-12 87,-19 139,-20 141,-4 282,-6 424,-4 101,1 153,4 153,4 0,0 54,-5 125,16 107,31 189,101 247,195 l -736,0 c 0,0 -17,-1 -41,0 -59,3 -162,22 -164,111 l 980,0 0,214 -974,0 0,96 980,1 -2,212 -1421,0 z"
         id="path206"
         inkscape:connector-curvature="0"
         style="fill:#0d5079" /><path
         class="fil5"
         d="m 3010,3380 c -24,-20 -46,-40 -65,-58 -44,-43 -71,-74 -71,-74 l 6562,5 c -32,49 -75,90 -122,124 -160,116 -372,165 -372,165 0,0 -1392,2 -2787,2 -1330,1 -2662,0 -2786,-2 -135,-3 -265,-85 -358,-162 z"
         id="path208"
         inkscape:connector-curvature="0"
         style="fill:#0d5079" /><path
         class="fil5"
         d="m 10165,2646 c 36,-14 65,-32 89,-51 131,-107 114,-274 113,-278 0,0 -1835,0 -2018,0 127,58 222,152 255,290 6,27 11,66 14,111 12,173 3,436 3,436 114,-155 123,-497 123,-497 l 1393,0 c 10,-3 19,-7 29,-11 z"
         id="path210"
         inkscape:connector-curvature="0"
         style="fill:#0d5079" /><path
         class="fil5"
         d="m 2154,2646 c -36,-14 -65,-32 -89,-51 -131,-107 -114,-273 -113,-278 0,0 1832,0 2014,0 -127,59 -218,152 -251,290 -6,27 -11,66 -14,111 -12,172 -3,436 -3,436 -114,-155 -122,-497 -122,-497 l -1393,0 c -10,-3 -20,-7 -29,-11 z"
         id="path212"
         inkscape:connector-curvature="0"
         style="fill:#0d5079" /><path
         class="fil5"
         d="m 2344,2851 c -17,-17 -32,-34 -44,-49 -26,-32 -39,-57 -39,-57 l 0,-14 1285,0 0,206 -1068,0 c -53,-18 -98,-51 -133,-86 z"
         id="path214"
         inkscape:connector-curvature="0"
         style="fill:#0d5079" /><path
         class="fil5"
         d="m 2648,3089 c -15,-13 -27,-25 -37,-37 -23,-26 -34,-44 -34,-44 l 982,-9 c 7,32 19,64 30,94 14,40 28,73 28,73 l -858,0 c -45,-21 -83,-49 -112,-76 z"
         id="path216"
         inkscape:connector-curvature="0"
         style="fill:#0d5079" /><path
         class="fil5"
         d="m 9975,2851 c 17,-17 32,-34 44,-49 26,-32 40,-57 40,-57 l 0,-14 -1285,0 0,206 1069,0 c 53,-18 98,-51 132,-86 z"
         id="path218"
         inkscape:connector-curvature="0"
         style="fill:#0d5079" /><path
         class="fil5"
         d="m 9672,3089 c 14,-13 26,-25 36,-37 23,-26 35,-44 35,-44 l 0,0 -982,-9 c -8,32 -19,64 -30,94 -14,40 -28,73 -28,73 l 858,0 c 45,-21 83,-49 112,-76 z"
         id="path220"
         inkscape:connector-curvature="0"
         style="fill:#0d5079" /><path
         class="fil6"
         d="m 3992,2256 c 18,-77 41,-153 66,-228 168,23 323,-68 401,-215 78,-149 66,-336 -36,-473 90,-118 190,-228 301,-328 292,259 726,-22 651,-412 133,-55 271,-96 412,-123 117,403 662,397 771,-9 142,24 281,62 414,113 -6,22 -10,45 -13,68 -38,398 422,632 688,341 110,97 212,205 302,320 -136,137 -161,351 -72,518 88,165 275,257 461,201 26,74 48,151 66,228 l -1331,-1 c -16,-27 -34,-53 -52,-78 -415,-576 -1229,-598 -1670,-41 -30,38 -57,78 -82,119 l -1278,1 z"
         id="path222"
         inkscape:connector-curvature="0"
         style="fill:#6a8998;fill-rule:nonzero" /><path
         class="fil3"
         d="m 5119,2267 c 198,-399 591,-671 1044,-671 452,0 846,271 1044,670 l 36,-18 c -204,-411 -611,-692 -1079,-692 -469,0 -876,281 -1080,693 l 36,18 z"
         id="path224"
         inkscape:connector-curvature="0"
         style="fill:#fefefe;fill-rule:nonzero" /><path
         class="fil5"
         d="m 5392,2259 0,-129 c 9,-32 40,-60 67,-78 20,-14 36,-22 36,-22 l 0,229 -103,0 z"
         id="path226"
         inkscape:connector-curvature="0"
         style="fill:#0d5079" /><path
         class="fil5"
         d="m 5565,2259 0,-255 c 9,-32 41,-60 67,-78 20,-14 36,-22 36,-22 l 0,355 -103,0 z"
         id="path228"
         inkscape:connector-curvature="0"
         style="fill:#0d5079" /><path
         class="fil5"
         d="m 5748,2259 0,-381 c 8,-29 34,-49 60,-62 23,-11 43,-17 43,-17 l 0,459 -103,0 z"
         id="path230"
         inkscape:connector-curvature="0"
         style="fill:#0d5079" /><path
         class="fil5"
         d="m 5939,2259 0,-430 c 7,-27 33,-44 58,-55 25,-10 48,-13 48,-13 l -3,497 -103,0 z"
         id="path232"
         inkscape:connector-curvature="0"
         style="fill:#0d5079" /><path
         class="fil5"
         d="m 6118,2259 1,-477 c 10,-39 100,-48 101,-1 l 1,478 -103,0 z"
         id="path234"
         inkscape:connector-curvature="0"
         style="fill:#0d5079" /><path
         class="fil5"
         d="m 6938,2259 0,-129 c -8,-32 -40,-60 -66,-78 -20,-14 -36,-22 -36,-22 l 0,229 103,0 z"
         id="path236"
         inkscape:connector-curvature="0"
         style="fill:#0d5079" /><path
         class="fil5"
         d="m 6765,2259 0,-255 c -9,-32 -41,-60 -67,-78 -19,-14 -36,-22 -36,-22 l 0,355 103,0 z"
         id="path238"
         inkscape:connector-curvature="0"
         style="fill:#0d5079" /><path
         class="fil5"
         d="m 6582,2259 0,-381 c -8,-29 -34,-49 -60,-62 -23,-11 -43,-17 -43,-17 l 0,459 103,0 z"
         id="path240"
         inkscape:connector-curvature="0"
         style="fill:#0d5079" /><path
         class="fil5"
         d="m 6392,2259 0,-430 c -7,-27 -33,-44 -58,-55 -24,-10 -48,-13 -48,-13 l 3,497 103,0 z"
         id="path242"
         inkscape:connector-curvature="0"
         style="fill:#0d5079" /><path
         class="fil6"
         d="m 3992,3605 c 18,78 41,154 66,228 168,-22 323,69 401,215 78,149 66,337 -36,473 90,119 190,229 301,329 292,-259 726,21 651,412 133,54 271,96 412,123 117,-403 662,-397 771,9 142,-24 281,-62 414,-113 -6,-23 -10,-45 -13,-68 -38,-398 422,-632 688,-341 110,-97 212,-205 302,-320 -136,-137 -161,-351 -72,-518 88,-165 275,-257 461,-200 26,-75 48,-151 66,-228 l -1331,1 c -16,27 -34,53 -52,78 -415,576 -1229,598 -1670,40 -30,-38 -57,-77 -82,-119 l -1278,-1 z"
         id="path244"
         inkscape:connector-curvature="0"
         style="fill:#6a8998;fill-rule:nonzero" /><path
         class="fil3"
         d="m 3942,3315 -3,30 c -6,-8 -14,-14 -25,-17 -11,-4 -25,-6 -41,-6 -31,0 -55,5 -73,16 -17,10 -26,25 -26,43 0,19 10,34 29,45 19,11 45,17 77,17 15,0 29,-1 43,-5 13,-3 25,-7 34,-13 -5,10 -16,18 -34,25 -18,6 -39,9 -63,9 -38,0 -69,-6 -93,-20 -24,-14 -36,-31 -36,-52 0,-23 13,-42 39,-55 26,-13 62,-20 108,-20 7,0 18,1 32,1 14,1 25,1 32,1 z"
         id="path246"
         inkscape:connector-curvature="0"
         style="fill:#fefefe;fill-rule:nonzero" /><path
         class="fil3"
         d="m 4127,3449 c 26,0 47,-5 62,-15 15,-10 23,-25 23,-44 0,-21 -8,-38 -24,-50 -16,-12 -38,-18 -65,-18 -29,0 -51,5 -67,16 -16,11 -24,25 -24,45 0,21 8,38 26,49 17,12 40,17 71,17 z m -13,11 c -41,0 -72,-6 -94,-18 -22,-12 -33,-30 -33,-52 0,-25 12,-44 36,-57 24,-13 58,-20 103,-20 42,0 74,6 95,17 22,12 32,29 32,52 0,24 -13,42 -38,57 -26,14 -60,21 -102,21 z"
         id="path248"
         inkscape:connector-curvature="0"
         style="fill:#fefefe;fill-rule:nonzero" /><path
         class="fil3"
         d="m 4295,3315 59,0 c -4,2 -7,7 -8,15 -2,8 -2,24 -2,50 l 0,9 c 0,16 0,29 1,40 1,11 2,18 3,20 l 9,0 14,0 c 23,0 40,-1 52,-3 12,-2 22,-6 29,-12 l -9,22 c -6,1 -12,1 -20,1 -7,0 -15,0 -23,0 -7,0 -20,0 -39,0 -19,0 -36,0 -49,0 l -15,0 c 4,-2 7,-7 8,-15 2,-8 3,-25 3,-50 l 0,-9 c 0,-28 -1,-46 -3,-53 -2,-8 -4,-13 -8,-15 z"
         id="path250"
         inkscape:connector-curvature="0"
         style="fill:#fefefe;fill-rule:nonzero" /><path
         class="fil3"
         d="m 4484,3315 58,0 c -4,2 -7,7 -8,15 -2,8 -2,24 -2,50 l 0,9 c 0,16 0,29 1,40 1,11 2,18 3,20 l 9,0 14,0 c 22,0 40,-1 52,-3 12,-2 22,-6 30,-12 l -9,22 c -6,1 -13,1 -20,1 -7,0 -15,0 -23,0 -7,0 -20,0 -39,0 -20,0 -36,0 -50,0 l -14,0 c 4,-2 6,-7 8,-15 2,-8 3,-25 3,-50 l 0,-9 c 0,-28 -1,-46 -3,-53 -2,-8 -5,-13 -8,-15 z"
         id="path252"
         inkscape:connector-curvature="0"
         style="fill:#fefefe;fill-rule:nonzero" /><path
         class="fil3"
         d="m 4674,3457 c 4,-2 6,-7 8,-15 2,-8 3,-25 3,-50 l 0,-9 c 0,-28 -1,-46 -3,-53 -2,-8 -4,-13 -8,-15 l 26,0 c 19,0 41,0 65,0 24,0 39,0 44,0 l 15,0 3,21 c -3,-4 -10,-8 -21,-9 -10,-2 -29,-3 -58,-3 l -24,0 c -1,3 -3,8 -3,15 -1,7 -1,18 -1,31 l 0,7 12,0 c 5,0 12,0 22,0 17,0 31,0 43,0 12,-1 22,-1 31,-2 -8,5 -18,8 -31,10 -13,2 -34,3 -65,3 l -5,0 -6,0 0,14 c 0,14 0,24 1,32 1,7 2,12 3,15 l 25,0 c 28,0 49,-1 64,-4 14,-2 25,-6 33,-12 l -7,22 c -6,1 -12,1 -20,1 -8,0 -15,0 -24,0 -6,0 -19,0 -39,0 -19,0 -36,0 -49,0 l -35,0 z"
         id="path254"
         inkscape:connector-curvature="0"
         style="fill:#fefefe;fill-rule:nonzero" /><path
         class="fil3"
         d="m 5069,3386 58,0 -8,12 c -1,5 -2,15 -2,28 0,9 1,16 1,20 l 3,10 c -15,0 -34,1 -55,2 -22,1 -36,1 -42,1 -47,0 -83,-6 -109,-18 -25,-12 -38,-29 -38,-52 0,-24 15,-43 46,-57 31,-14 73,-21 126,-21 10,0 20,0 31,1 11,0 23,1 36,2 l 0,26 c -11,-6 -23,-11 -37,-14 -14,-3 -30,-5 -47,-5 -34,0 -61,6 -81,17 -20,12 -30,27 -30,47 0,20 10,35 33,46 22,11 52,16 90,16 l 17,0 15,-1 2,-12 1,-14 c 0,-10 -1,-18 -3,-23 l -8,-12 z"
         id="path256"
         inkscape:connector-curvature="0"
         style="fill:#fefefe;fill-rule:nonzero" /><path
         class="fil3"
         d="m 5175,3457 c 4,-2 7,-7 8,-15 2,-8 3,-25 3,-50 l 0,-9 c 0,-28 -1,-46 -3,-53 -1,-8 -4,-13 -8,-15 l 27,0 c 19,0 41,0 65,0 24,0 39,0 44,0 l 15,0 3,21 c -3,-4 -10,-8 -20,-9 -10,-2 -29,-3 -58,-3 l -23,0 c -2,3 -3,8 -3,15 -1,7 -1,18 -1,31 l 0,7 12,0 c 4,0 12,0 22,0 17,0 31,0 43,0 11,-1 22,-1 31,-2 -8,5 -18,8 -31,10 -13,2 -35,3 -65,3 l -5,0 -7,0 0,14 c 0,14 0,24 1,32 1,7 2,12 3,15 l 24,0 c 28,0 50,-1 64,-4 14,-2 26,-6 33,-12 l -7,22 c -6,1 -12,1 -20,1 -7,0 -15,0 -23,0 -6,0 -20,0 -39,0 -20,0 -36,0 -49,0 l -35,0 z"
         id="path258"
         inkscape:connector-curvature="0"
         style="fill:#fefefe;fill-rule:nonzero" /><path
         class="fil3"
         d="m 5632,3449 c 26,0 47,-5 62,-15 15,-10 23,-25 23,-44 0,-21 -8,-38 -24,-50 -16,-12 -38,-18 -65,-18 -29,0 -51,5 -67,16 -16,11 -24,25 -24,45 0,21 8,38 25,49 16,12 40,17 71,17 z m -13,11 c -41,0 -72,-6 -94,-18 -22,-12 -33,-30 -33,-52 0,-25 12,-44 36,-57 24,-13 58,-20 103,-20 42,0 74,6 96,17 21,12 32,29 32,52 0,24 -13,42 -38,57 -25,14 -60,21 -102,21 z"
         id="path260"
         inkscape:connector-curvature="0"
         style="fill:#fefefe;fill-rule:nonzero" /><path
         class="fil3"
         d="m 5848,3380 c 9,0 17,1 24,1 7,0 14,0 20,0 11,0 21,0 31,0 10,-1 19,-1 29,-2 -6,5 -15,8 -26,10 -12,2 -32,3 -62,3 l -16,0 0,11 c 0,22 1,36 2,42 l 9,13 -59,0 c 4,-2 7,-7 8,-15 2,-8 2,-24 2,-50 l 0,-9 c 0,-28 -1,-46 -2,-53 -1,-8 -4,-13 -8,-15 l 30,0 c 6,0 18,0 35,-1 17,0 33,0 44,0 10,0 18,0 26,0 8,1 14,1 21,1 l 2,18 c -4,-4 -12,-7 -22,-8 -11,-2 -28,-3 -52,-3 l -15,0 -16,0 c -2,3 -3,8 -3,15 -1,7 -1,17 -1,31 l 0,10 z"
         id="path262"
         inkscape:connector-curvature="0"
         style="fill:#fefefe;fill-rule:nonzero" /><path
         class="fil3"
         d="m 6102,3457 c 4,-2 6,-7 8,-15 2,-8 3,-25 3,-50 l 0,-9 c 0,-28 -1,-46 -3,-53 -2,-8 -4,-13 -8,-15 l 27,0 c 19,0 40,0 65,0 24,0 39,0 44,0 l 15,0 4,21 c -4,-4 -10,-8 -21,-9 -10,-2 -29,-3 -58,-3 l -24,0 c -1,3 -2,8 -3,15 -1,7 -1,18 -1,31 l 0,7 12,0 c 5,0 11,0 22,0 17,0 31,0 43,0 11,-1 22,-1 31,-2 -8,5 -18,8 -32,10 -13,2 -34,3 -65,3 l -5,0 -6,0 0,14 c 0,14 0,24 1,32 1,7 2,12 3,15 l 25,0 c 28,0 50,-1 64,-4 14,-2 26,-6 33,-12 l -7,22 c -6,1 -12,1 -20,1 -8,0 -15,0 -24,0 -6,0 -19,0 -39,0 -20,0 -36,0 -49,0 l -35,0 z"
         id="path264"
         inkscape:connector-curvature="0"
         style="fill:#fefefe;fill-rule:nonzero" /><path
         class="fil3"
         d="m 6344,3332 1,72 c 0,17 1,30 3,37 2,7 6,13 11,17 l -50,0 c 6,-4 10,-12 13,-25 2,-14 3,-33 3,-59 0,-23 -1,-38 -3,-45 -2,-7 -7,-11 -13,-14 l 44,0 c 9,0 18,4 27,12 l 6,5 c 8,6 21,16 38,29 39,31 71,54 95,71 l 0,-62 c 0,-20 -1,-34 -3,-41 -2,-7 -5,-12 -9,-14 l 41,0 c -4,2 -7,7 -9,16 -2,9 -3,27 -3,53 l 0,74 -28,0 c -10,-8 -34,-26 -71,-54 -38,-28 -70,-52 -95,-72 z"
         id="path266"
         inkscape:connector-curvature="0"
         style="fill:#fefefe;fill-rule:nonzero" /><path
         class="fil3"
         d="m 6783,3386 58,0 -8,12 c -2,5 -2,15 -2,28 0,9 0,16 1,20 l 4,10 c -15,0 -33,1 -55,2 -22,1 -36,1 -43,1 -47,0 -84,-6 -108,-18 -25,-12 -38,-29 -38,-52 0,-24 15,-43 46,-57 31,-14 73,-21 126,-21 10,0 20,0 31,1 11,0 23,1 36,2 l 0,26 c -11,-6 -23,-11 -37,-14 -14,-3 -29,-5 -46,-5 -34,0 -61,6 -81,17 -20,12 -30,27 -30,47 0,20 11,35 33,46 22,11 52,16 90,16 l 17,0 15,-1 3,-12 0,-14 c 0,-10 0,-18 -2,-23 l -8,-12 z"
         id="path268"
         inkscape:connector-curvature="0"
         style="fill:#fefefe;fill-rule:nonzero" /><path
         class="fil3"
         d="m 6890,3457 c 4,-2 6,-7 8,-15 2,-8 2,-25 2,-50 l 0,-9 c 0,-28 -1,-46 -2,-53 -2,-8 -4,-13 -8,-15 l 58,0 c -4,2 -7,7 -8,14 -1,8 -2,23 -2,48 l 0,17 c 0,25 1,41 2,48 2,8 5,12 8,14 l -58,0 z"
         id="path270"
         inkscape:connector-curvature="0"
         style="fill:#fefefe;fill-rule:nonzero" /><path
         class="fil3"
         d="m 7027,3332 1,72 c 0,17 1,30 4,37 2,7 6,13 11,17 l -50,0 c 5,-4 10,-12 12,-25 3,-14 4,-33 4,-59 0,-23 -1,-38 -4,-45 -2,-7 -6,-11 -12,-14 l 44,0 c 8,0 17,4 27,12 l 6,5 c 8,6 21,16 38,29 39,31 71,54 95,71 l 0,-62 c 0,-20 -1,-34 -2,-41 -2,-7 -5,-12 -9,-14 l 41,0 c -4,2 -7,7 -9,16 -2,9 -3,27 -3,53 l 0,74 -28,0 c -10,-8 -33,-26 -71,-54 -38,-28 -70,-52 -95,-72 z"
         id="path272"
         inkscape:connector-curvature="0"
         style="fill:#fefefe;fill-rule:nonzero" /><path
         class="fil3"
         d="m 7283,3457 c 4,-2 7,-7 8,-15 2,-8 3,-25 3,-50 l 0,-9 c 0,-28 -1,-46 -3,-53 -1,-8 -4,-13 -8,-15 l 26,0 c 19,0 41,0 65,0 24,0 39,0 44,0 l 15,0 3,21 c -3,-4 -10,-8 -20,-9 -10,-2 -30,-3 -58,-3 l -24,0 c -1,3 -3,8 -3,15 -1,7 -1,18 -1,31 l 0,7 12,0 c 4,0 12,0 22,0 17,0 31,0 43,0 11,-1 22,-1 31,-2 -8,5 -18,8 -31,10 -13,2 -35,3 -65,3 l -5,0 -6,0 0,14 c 0,14 0,24 1,32 1,7 2,12 3,15 l 24,0 c 29,0 50,-1 64,-4 14,-2 26,-6 33,-12 l -7,22 c -6,1 -12,1 -20,1 -7,0 -15,0 -23,0 -7,0 -20,0 -39,0 -19,0 -36,0 -49,0 l -35,0 z"
         id="path274"
         inkscape:connector-curvature="0"
         style="fill:#fefefe;fill-rule:nonzero" /><path
         class="fil3"
         d="m 7496,3457 c 4,-2 7,-7 8,-15 2,-8 2,-25 2,-50 l 0,-9 c 0,-28 -1,-46 -2,-53 -2,-8 -4,-13 -8,-15 l 27,0 c 19,0 41,0 65,0 24,0 39,0 44,0 l 15,0 3,21 c -3,-4 -10,-8 -20,-9 -10,-2 -29,-3 -58,-3 l -24,0 c -1,3 -3,8 -3,15 0,7 -1,18 -1,31 l 0,7 12,0 c 5,0 12,0 22,0 17,0 31,0 43,0 11,-1 22,-1 31,-2 -8,5 -18,8 -31,10 -13,2 -34,3 -65,3 l -5,0 -6,0 0,14 c 0,14 0,24 1,32 0,7 2,12 3,15 l 25,0 c 28,0 49,-1 64,-4 14,-2 26,-6 33,-12 l -7,22 c -6,1 -12,1 -19,1 -8,0 -15,0 -23,0 -7,0 -20,0 -39,0 -19,0 -36,0 -49,0 l -35,0 z"
         id="path276"
         inkscape:connector-curvature="0"
         style="fill:#fefefe;fill-rule:nonzero" /><path
         class="fil3"
         d="m 7757,3380 8,1 10,0 c 21,0 37,-3 48,-9 11,-5 17,-13 17,-24 0,-9 -4,-15 -13,-20 -9,-4 -22,-6 -39,-6 -7,0 -12,0 -16,0 l -11,0 c -1,3 -2,8 -3,15 -1,7 -1,17 -1,30 l 0,12 z m -35,-65 c 17,0 36,0 56,-1 21,0 33,-1 37,-1 22,0 38,3 50,7 11,5 17,12 17,21 0,9 -5,17 -16,24 -11,7 -27,13 -49,17 l 62,44 c 10,7 20,13 28,18 9,5 16,8 24,11 l -41,0 -12,-1 -9,-5 -74,-53 -15,-8 c -5,-1 -11,-2 -18,-2 l -3,0 0,13 c 0,22 1,36 2,42 l 9,13 -58,0 c 4,-2 6,-7 8,-15 2,-8 2,-25 2,-50 l 0,-9 c 0,-28 -1,-46 -2,-53 -2,-8 -4,-13 -8,-15 l 12,0 z"
         id="path278"
         inkscape:connector-curvature="0"
         style="fill:#fefefe;fill-rule:nonzero" /><path
         class="fil3"
         d="m 7936,3457 c 4,-2 7,-7 8,-15 2,-8 2,-25 2,-50 l 0,-9 c 0,-28 -1,-46 -2,-53 -2,-8 -4,-13 -8,-15 l 59,0 c -4,2 -7,7 -8,14 -2,8 -2,23 -2,48 l 0,17 c 0,25 1,41 2,48 2,8 4,12 8,14 l -59,0 z"
         id="path280"
         inkscape:connector-curvature="0"
         style="fill:#fefefe;fill-rule:nonzero" /><path
         class="fil3"
         d="m 8074,3332 1,72 c 0,17 2,30 4,37 2,7 6,13 11,17 l -50,0 c 5,-4 10,-12 12,-25 3,-14 4,-33 4,-59 0,-23 -1,-38 -4,-45 -2,-7 -6,-11 -12,-14 l 45,0 c 8,0 17,4 27,12 l 6,5 c 8,6 21,16 38,29 39,31 71,54 94,71 l 1,-62 c 0,-20 -1,-34 -3,-41 -2,-7 -5,-12 -8,-14 l 41,0 c -4,2 -7,7 -9,16 -1,9 -2,27 -2,53 l 0,74 -28,0 c -9,-8 -33,-26 -71,-54 -38,-28 -70,-52 -96,-72 z"
         id="path282"
         inkscape:connector-curvature="0"
         style="fill:#fefefe;fill-rule:nonzero" /><path
         class="fil3"
         d="m 8513,3386 58,0 -8,12 c -1,5 -2,15 -2,28 0,9 1,16 1,20 l 3,10 c -15,0 -34,1 -55,2 -22,1 -36,1 -43,1 -47,0 -83,-6 -109,-18 -25,-12 -38,-29 -38,-52 0,-24 15,-43 46,-57 31,-14 73,-21 126,-21 9,0 20,0 31,1 12,0 23,1 36,2 l 0,26 c -11,-6 -23,-11 -37,-14 -14,-3 -29,-5 -47,-5 -34,0 -61,6 -81,17 -20,12 -30,27 -30,47 0,20 11,35 32,46 22,11 52,16 90,16 l 17,0 15,-1 2,-12 1,-14 c 0,-10 -1,-18 -3,-23 l -8,-12 z"
         id="path284"
         inkscape:connector-curvature="0"
         style="fill:#fefefe;fill-rule:nonzero" /><path
         class="fil3"
         d="m 5083,3612 c 204,412 611,693 1080,693 469,0 875,-281 1079,-692 l -36,-18 c -198,399 -591,670 -1044,670 -453,0 -846,-271 -1044,-671 l -36,18 z"
         id="path286"
         inkscape:connector-curvature="0"
         style="fill:#fefefe;fill-rule:nonzero" /><path
         class="fil5"
         d="m 5392,3603 0,129 c 9,32 40,60 67,78 20,14 36,22 36,22 l 0,-229 -103,0 z"
         id="path288"
         inkscape:connector-curvature="0"
         style="fill:#0d5079" /><path
         class="fil5"
         d="m 5565,3603 0,254 c 9,32 41,60 67,79 20,13 36,21 36,21 l 0,-355 -103,0 z"
         id="path290"
         inkscape:connector-curvature="0"
         style="fill:#0d5079" /><path
         class="fil5"
         d="m 5748,3603 0,381 c 8,29 34,49 60,62 23,11 43,16 43,16 l 0,-459 -103,0 z"
         id="path292"
         inkscape:connector-curvature="0"
         style="fill:#0d5079" /><path
         class="fil5"
         d="m 5939,3603 0,429 c 7,28 33,45 58,55 25,10 48,13 48,13 l -3,-497 -103,0 z"
         id="path294"
         inkscape:connector-curvature="0"
         style="fill:#0d5079" /><path
         class="fil5"
         d="m 6118,3603 1,477 c 10,39 100,48 101,0 l 1,-478 -103,0 z"
         id="path296"
         inkscape:connector-curvature="0"
         style="fill:#0d5079" /><path
         class="fil5"
         d="m 6938,3603 0,129 c -8,32 -40,60 -66,78 -20,14 -36,22 -36,22 l 0,-229 103,0 z"
         id="path298"
         inkscape:connector-curvature="0"
         style="fill:#0d5079" /><path
         class="fil5"
         d="m 6765,3603 0,254 c -9,32 -41,60 -67,79 -19,13 -36,21 -36,21 l 0,-355 103,0 z"
         id="path300"
         inkscape:connector-curvature="0"
         style="fill:#0d5079" /><path
         class="fil5"
         d="m 6582,3603 0,381 c -8,29 -34,49 -60,62 -23,11 -43,16 -43,16 l 0,-459 103,0 z"
         id="path302"
         inkscape:connector-curvature="0"
         style="fill:#0d5079" /><path
         class="fil5"
         d="m 6392,3603 0,429 c -7,28 -33,45 -58,55 -24,10 -48,13 -48,13 l 3,-497 103,0 z"
         id="path304"
         inkscape:connector-curvature="0"
         style="fill:#0d5079" /></g></g></svg>