<svg width="40.625" xmlns="http://www.w3.org/2000/svg" height="40.625" viewBox="729.688 4732.688 40.625 40.625" fill="none"><path d="M750.000,4732.688C738.782,4732.688,729.688,4741.782,729.688,4753.000C729.688,4764.218,738.782,4773.313,750.000,4773.313C761.218,4773.313,770.313,4764.218,770.313,4753.000C770.313,4741.782,761.218,4732.688,750.000,4732.688ZZM758.917,4754.105C759.210,4753.812,759.375,4753.414,759.375,4753.000C759.375,4752.586,759.210,4752.188,758.917,4751.895L752.667,4745.645C752.057,4745.035,751.068,4745.035,750.458,4745.645C749.847,4746.255,749.847,4747.245,750.458,4747.855L754.040,4751.438L742.188,4751.438C741.325,4751.438,740.625,4752.137,740.625,4753.000C740.625,4753.863,741.325,4754.563,742.188,4754.563L754.040,4754.563L750.458,4758.145C749.847,4758.755,749.847,4759.745,750.458,4760.355C751.068,4760.965,752.057,4760.965,752.667,4760.355L758.917,4754.105ZZ" fill-rule="evenodd" clip-rule="evenodd" style="fill: rgb(255, 253, 253); fill-opacity: 1;" class="fills"/></svg>