<svg width="3317.328" xmlns="http://www.w3.org/2000/svg" height="2583.737" viewBox="-235 5628 3317.328 2583.737" fill="none"><defs><filter id="a" x="-.08" y="-.293" width="1.161" height="1.586" filterUnits="objectBoundingBox" color-interpolation-filters="sRGB"><feFlood flood-opacity="0" result="BackgroundImageFix"/><feBlend in="SourceGraphic" in2="BackgroundImageFix" result="shape"/><feGaussianBlur stdDeviation="100" result="filter_c24cb439-bffa-807f-8005-df6e8a300287"/></filter></defs><path d="M319.502,6348.478L450.539,6326.280L788.133,6269.094C816.150,6342.753,875.477,6487.763,995.867,6513.316C1121.343,6539.588,1311.705,6448.483,1408.600,6524.785C1503.642,6599.053,1507.802,6837.012,1603.376,6915.669C1699.065,6992.340,1888.371,6905.783,1978.580,6985.107C2072.553,7067.504,2071.250,7317.862,2131.134,7460.101C2188.284,7601.877,2304.799,7639.668,2364.042,7658.588L2423.284,7677.507L2347.940,7811.737L2294.808,7782.821C2241.676,7753.905,2133.882,7695.242,2030.676,7639.075C1923.265,7580.619,1816.618,7522.580,1709.589,7464.332C1604.853,7407.333,1499.354,7349.918,1392.325,7291.670C1286.060,7233.839,1178.267,7175.175,1075.060,7119.008C967.649,7060.553,861.002,7002.513,753.973,6944.266C649.238,6887.267,543.738,6829.851,490.223,6800.727L436.709,6771.604L319.502,6348.478Z" filter="url(#a)" style="fill: rgb(65, 68, 204); fill-opacity: 0.588889;" class="fills"/></svg>