<svg width="2376.316" xmlns="http://www.w3.org/2000/svg" height="1385.873" viewBox="-189.381 -236.238 2376.316 1385.873" fill="none"><g style="fill: rgb(0, 0, 0);"><defs><filter id="a" x="-.103" y="-.451" width="1.207" height="1.903" filterUnits="objectBoundingBox" color-interpolation-filters="sRGB"><feFlood flood-opacity="0" result="BackgroundImageFix"/><feBlend in="SourceGraphic" in2="BackgroundImageFix" result="shape"/><feGaussianBlur stdDeviation="100" result="filter_c24cb439-bffa-807f-8005-df6e8a300287"/></filter></defs><path d="M14.160,533.477L73.711,551.902C133.463,571.179,253.931,607.084,349.935,559.469C449.796,509.680,528.942,375.427,637.002,362.093C742.680,348.757,876.977,453.404,985.440,441.774C1092.885,429.197,1173.826,297.502,1279.008,288.804C1388.449,279.636,1525.881,392.522,1645.197,426.912C1762.398,462.435,1862.527,422.207,1913.275,401.621L1964.023,381.035L1986.935,478.186L1934.821,491.292C1882.706,504.398,1776.977,530.988,1675.747,556.446C1570.393,582.942,1465.789,609.249,1360.810,635.650C1258.080,661.485,1154.601,687.509,1049.622,713.910C945.393,740.123,839.664,766.713,738.434,792.171C633.080,818.666,528.476,844.973,423.497,871.374C320.767,897.210,217.288,923.234,164.798,936.434L112.309,949.635Z" filter="url(#a)" style="fill: rgb(65, 69, 204); fill-opacity: 1;" class="fills"/></g></svg>